<?xml version="1.0" encoding="UTF-8"?>
<svg width="512" height="512" viewBox="0 0 512 512" xmlns="http://www.w3.org/2000/svg" role="img" aria-label="Woman avatar logo">
  <!-- Outer pale background -->
  <rect width="512" height="512" fill="#def0d8"/>
  <!-- Inner blue circle -->
  <circle cx="256" cy="256" r="190" fill="#4A90E2"/>
  
  <!-- Neck -->
  <rect x="235" y="268" width="42" height="46" rx="20" fill="#f2c7a6"/>
  
  <!-- Shoulders/body -->
  <path d="M128 388c8-62 64-100 128-100s120 38 128 100v28H128v-28z" fill="#e6edf7"/>
  
  <!-- Shirt details -->
  <path d="M256 288c-30 0-66 19-86 46 18 10 53 18 86 18s68-8 86-18c-20-27-56-46-86-46z" fill="#ffffff" opacity="0.8"/>
  
  <!-- Face -->
  <ellipse cx="256" cy="238" rx="76" ry="86" fill="#f2c7a6"/>
  
  <!-- Hair (styled so it doesn’t cover eyes, parted above forehead) -->
  <path d="M180 230c0-56 38-102 76-102s76 46 76 102c0 44-14 78-28 92-4-20-14-40-30-50-8-4-18-6-28-6s-20 2-28 6c-16 10-26 30-30 50-14-14-28-48-28-92z" fill="#27292f"/>
  
  <!-- Eyes -->
  <circle cx="230" cy="238" r="6" fill="#2a2a2a"/>
  <circle cx="282" cy="238" r="6" fill="#2a2a2a"/>
  
  <!-- Smile -->
  <path d="M232 268c8 10 40 10 48 0" fill="none" stroke="#c56c5a" stroke-width="6" stroke-linecap="round"/>
  
  <!-- Simple blouse collar -->
  <path d="M235 314l-22 44 43-28 43 28-22-44z" fill="#ffffff"/>
  <!-- Pendant / tie-like accent -->
  <circle cx="256" cy="338" r="8" fill="#7aa7ff"/>
</svg>
